<?xml version="1.0" encoding="utf-8"?>
<!-- Generator: Adobe Illustrator 26.2.1, SVG Export Plug-In . SVG Version: 6.00 Build 0)  -->
<svg version="1.1" id="Camada_1" xmlns="http://www.w3.org/2000/svg" xmlns:xlink="http://www.w3.org/1999/xlink" x="0px" y="0px"
	 viewBox="0 0 78.9 60" style="enable-background:new 0 0 78.9 60;" xml:space="preserve">
<style type="text/css">
	.st0{fill:#601AE9;}
	.st1{fill:#8B52FD;}
	.st2{fill:#F9B75D;}
</style>
<path class="st0" d="M1.4,59c-0.2-0.2-0.3-0.5-0.3-0.9V1.9c0-0.3,0.1-0.6,0.3-0.9h60.2l16.3,18.7v38.4c0,0.3-0.1,0.6-0.3,0.9H1.4z"
	/>
<path class="st0" d="M2.2,1.7L2.2,1.7 M61.2,2l15.7,18.1V58H2.1V2H61.2 M62.1,0H1.4C0.7,0,0.1,0.8,0.1,1.9v56.3c0,1,0.6,1.9,1.3,1.9
	h76.2c0.7,0,1.3-0.8,1.3-1.9V19.4L62.1,0z"/>
<path class="st1" d="M61.1,0v19.9c-0.1,0.7,0.4,1.2,1.1,1.3l16.8-0.1v-1.8L62.1,0H61.1z"/>
<path class="st2" d="M33.5,46.1V24.4c0-0.5,0.4-0.9,1-0.9c0,0,0,0,0,0H42c0.5,0,1,0.4,1,0.9c0,0,0,0,0,0V25c1.4-1.2,3.3-1.9,5.2-1.9
	c2.6-0.1,5.1,1,6.8,3.1c0.3-0.4,0.6-0.8,1-1.1c1.6-1.2,3.5-1.9,5.6-1.9c2.3,0,4.5,0.8,6.2,2.4c1.7,1.5,2.6,3.7,2.6,5.9v13.7
	c0,0.5-0.5,0.9-1,0.9c0,0,0,0,0,0h-7.4c-0.5,0-1-0.3-1-0.9c0,0,0,0,0,0V33.5c0.1-1.3-0.8-2.5-2.1-2.6c-1.3,0.1-2.3,1.2-2.2,2.6
	c0,0,0,0,0,0v11.6c0,0.5-0.4,0.9-1,0.9c0,0,0,0,0,0h-7.4c-0.5,0-1-0.4-1-0.9c0,0,0,0,0,0V33.5c0.1-1.3-0.8-2.5-2.1-2.6
	c-1.3,0.1-2.3,1.2-2.2,2.5c0,0,0,0,0,0.1v11.6c0,0.5-0.5,0.9-1,0.9c0,0,0,0,0,0H33.5z"/>
<path class="st1" d="M9.6,23.3h7.9c0.5,0,0.9,0.4,1,0.9v11.6c0,1.4,1.1,2.6,2.5,2.6c0,0,0,0,0,0c1.4,0,2.5-1.1,2.5-2.4
	c0-0.1,0-0.1,0-0.2V24.2c0.1-0.5,0.5-0.9,1-0.9h7.9c0.5,0,0.9,0.4,1,0.9v21.6H17.8c-2.5,0-4.7-0.4-6.5-2c-1.8-1.5-2.8-3.6-2.7-5.9
	V24.2C8.6,23.7,9.1,23.3,9.6,23.3z"/>
</svg>
