<svg id="Camada_1" data-name="Camada 1" xmlns="http://www.w3.org/2000/svg" viewBox="0 0 148.37 60"><defs><style>.cls-1{fill:#601ae9;}.cls-2{fill:#fff;}.cls-3{fill:#8b52fd;}.cls-4{fill:#f9b75d;}</style></defs><path class="cls-1" d="M1.29,59A1.16,1.16,0,0,1,1,58.14V1.86A1,1,0,0,1,1.32,1H131.1l16.27,18.74v38.4a1.11,1.11,0,0,1-.31.86Z"/><path class="cls-2" d="M2,1.67H2M130.64,2l15.73,18.11V58H2V2H130.64m.91-2H1.29C.58,0,0,.83,0,1.86V58.14C0,59.17.58,60,1.29,60H147.07c.72,0,1.3-.83,1.3-1.86V19.37L131.55,0Z"/><path class="cls-3" d="M130.5,0V19.91a1.21,1.21,0,0,0,1.06,1.32l16.81-.08V19.37L131.56,0Z"/><path class="cls-4" d="M107.18,12.42a4.24,4.24,0,0,1,4.26,4.41,4.26,4.26,0,1,1-8.52,0A4.26,4.26,0,0,1,107.18,12.42Z"/><path class="cls-4" d="M98.4,23.09H89.93a.39.39,0,0,0-.4.38h0a.4.4,0,0,1-.6.32,10.15,10.15,0,0,0-4.73-1.13A10,10,0,0,0,76.51,26a11.79,11.79,0,0,0-3.06,8.32,12,12,0,0,0,3.06,8.36,10.15,10.15,0,0,0,7.69,3.34,10,10,0,0,0,4.73-1.14.4.4,0,0,1,.6.33h0a.39.39,0,0,0,.4.37H98.4a.39.39,0,0,0,.4-.37V23.47A.39.39,0,0,0,98.4,23.09ZM85.73,37.46a3,3,0,0,1-2.93-3.32,3,3,0,0,1,3.14-2.88,3,3,0,0,1,3,3.08A3.14,3.14,0,0,1,85.73,37.46Z"/><path class="cls-4" d="M33.5,46.06V24.42a.93.93,0,0,1,1-.9H42a.94.94,0,0,1,1,.9V25a7.7,7.7,0,0,1,5.22-1.86A8.39,8.39,0,0,1,55,26.21a10,10,0,0,1,1-1.13,9.36,9.36,0,0,1,5.56-1.94,8.8,8.8,0,0,1,6.17,2.42,7.76,7.76,0,0,1,2.59,5.94V45.16a.94.94,0,0,1-1,.9H61.88a.93.93,0,0,1-1-.9V33.53a2.39,2.39,0,0,0-2.12-2.6,2.37,2.37,0,0,0-2.17,2.6V45.16a.93.93,0,0,1-1,.9H48.17a.94.94,0,0,1-1-.9V33.53a2.39,2.39,0,0,0-2.12-2.6,2.36,2.36,0,0,0-2.16,2.6V45.16a.94.94,0,0,1-1,.9Z"/><path class="cls-4" d="M102.92,45.13V23.59a.9.9,0,0,1,.88-.93h6.8a.91.91,0,0,1,.89.93V45.13a.91.91,0,0,1-.89.93h-6.8A.91.91,0,0,1,102.92,45.13Z"/><path class="cls-4" d="M117,23.52h8.27a.49.49,0,0,1,.5.48h0a.51.51,0,0,0,.8.39,7.92,7.92,0,0,1,4.54-1.3,8.53,8.53,0,0,1,6.07,2.43,7.77,7.77,0,0,1,2.55,5.93V45.16a.93.93,0,0,1-1,.9h-7.37a.92.92,0,0,1-.95-.9V33.53a2.46,2.46,0,0,0-2.32-2.6,2.42,2.42,0,0,0-2.37,2.6V45.16a.93.93,0,0,1-1,.9h-7.37a.92.92,0,0,1-.95-.9V24A.49.49,0,0,1,117,23.52Z"/><path class="cls-3" d="M9.55,23.52h7.9a1,1,0,0,1,1,.9V36.05A2.53,2.53,0,0,0,21,38.65a2.49,2.49,0,0,0,2.53-2.6V24.42a1,1,0,0,1,1-.9h7.9a1,1,0,0,1,1,.9V46.06H17.78c-2.54,0-4.68-.39-6.52-2a7.55,7.55,0,0,1-2.74-5.93V24.42A1,1,0,0,1,9.55,23.52Z"/></svg>