<?xml version="1.0" encoding="UTF-8"?><svg xmlns="http://www.w3.org/2000/svg" viewBox="0 0 980.02 782"><defs><style>.d{fill:#fff;}</style></defs><g id="a"/><g id="b"><g id="c"><path d="M0,543c5.33-14.47,10.77-28.91,15.97-43.43,30.42-85.06,60.79-170.14,91.17-255.21,5.1-14.27,14.4-18.35,28.1-12.21,32.5,14.54,64.97,29.16,97.49,43.66,5,2.23,9.37,4.9,12.04,9.96,.59,1.12,2.52,2.05,3.91,2.16,42.17,3.46,84.35,6.83,126.53,10.17,8.62,.68,17.84,3.34,25.73,1.21,7.9-2.13,14.35-9.32,21.67-13.93,13.38-8.44,26.48-17.48,40.56-24.56,8.25-4.15,18.05-5.61,27.34-7.22,27.99-4.84,56.11-6.26,83.59,2.59,20.83,6.71,40.4,16.6,58.58,28.69,9.08,6.04,17.66,8.73,28.66,7.35,19.82-2.49,39.83-3.41,59.74-5.2,2.33-.21,4.75-1.41,6.77-2.69,26.27-16.72,52.47-33.56,78.7-50.34,13.37-8.55,23.07-5.96,30.17,8.04,46.71,92.2,93.41,184.4,140.1,276.6,6.43,12.71,3.2,21.97-9.82,28.04-34.23,15.98-68.46,31.94-102.71,47.88-10.38,4.83-17.95,2.83-24.79-6.44-2.57-3.48-5.13-6.96-7.9-10.73-1.33,.83-2.59,1.52-3.74,2.35-13.89,10.08-27.69,20.28-41.68,30.2-2.92,2.07-3.17,3.61-1.82,6.84,10.97,26.3,2.55,52.12-21.16,65.6-8.66,4.93-18.05,6.58-27.9,6.08-1.64-.08-3.27-.23-5.39-.37-.98,20.59-10.97,35.8-27.96,46.37-17.64,10.97-35.79,9.2-53.69,.44-20.03,38.8-45.12,47.02-86.09,28.29-12.54,11.05-27.9,16.01-44.16,18.81h-17c-.59-.26-1.16-.7-1.77-.77-18.2-1.98-34.77-8.68-50.51-17.64-2.92-1.66-4.79-2.01-7.82,.18-19.69,14.24-46.23,12.1-62.85-5.27-4.73-4.95-8.15-11.16-12.4-17.1-30.65,4.37-52.74-7.97-65.37-37.1-30.8,3.91-52.51-9.03-63.22-37.41-.49-1.29-2.6-2.48-4.13-2.75-4.56-.83-9.34-.65-13.79-1.82-22.12-5.8-36.44-25.16-36.36-48.46,0-1.73-.47-4.35-1.64-5.05-12.93-7.78-26.04-15.26-39.04-22.79-8.63,11.49-13.74,13.06-27.37,8.94-32.63-9.86-65.22-19.83-97.94-29.38C8.64,563.2,2.7,559.2,0,551v-8Zm356.57,55.69c42.87-10.71,66.37,3.06,78.47,46.33,16.4,1.02,29.75,8.14,39.38,21.7,10.81-7.2,17.09-6.86,26.83,1.24,23.96,19.92,47.91,39.85,71.87,59.76,5.84,4.86,12.16,8.79,19.9,9.75,7.2,.9,13.16-1.69,17.73-7.15,4.39-5.25,4.05-11.37,1.09-16.91-2.61-4.89-5.8-9.84-9.86-13.53-12.07-10.99-24.72-21.34-37.08-32.01-32.8-28.3-65.64-56.56-98.23-85.1-3.4-2.98-6.29-7.49-7.51-11.83-2.07-7.4,1.77-14.47,8.25-18.19,7.03-4.04,14.48-3.04,21.59,3.08,48.62,41.86,97.11,83.85,145.9,125.51,9.83,8.39,20.38,16.06,31.26,23.04,6.71,4.31,14.3,3.84,20.78-2.07,6.82-6.22,9.89-13.83,6.35-22.44-2.19-5.32-5.72-10.69-10.04-14.43-49.76-43.08-99.79-85.85-149.69-128.76-2.11-1.81-4.09-4.01-5.43-6.42-4.05-7.33-2.08-16.25,4.43-21.64,6.69-5.53,16.01-5.28,23.31,.94,19.4,16.54,38.71,33.18,58.06,49.79,31.35,26.92,62.67,53.88,94.07,80.74,8.8,7.53,18.77,12.8,30.64,12.93,11.21,.12,18.59-9.71,14.36-20.07-2.42-5.92-6.62-11.61-11.32-16.02-33.66-31.59-67.46-63.02-101.59-94.11-39.17-35.68-78.78-70.89-118.07-106.43-6.65-6.02-14.18-8.5-22.89-7.72-4.63,.41-9.34,.8-13.79,2.03-2.35,.65-5,2.63-6.17,4.75-8.7,15.67-18.78,30.28-31.6,42.9-21.26,20.93-46.61,30.32-76.37,26.6-26.8-3.35-44.54-25.15-42.03-51.57,1.44-15.17,7.2-28.9,17.08-40.33,6.46-7.48,9.83-15.39,11.56-25.06,2.11-11.83,6.31-23.29,9.69-35.23-41.09-3.31-82.82-6.67-124.82-10.05-6.82,41.41-18.11,80.85-32.35,119.48-14.28,38.76-31.56,76.17-51.09,113.1,13.06,7.54,25.79,14.9,38.73,22.37,2.25-3.18,4.14-5.9,6.07-8.58,20.51-28.47,61.26-28,80.9,1.03,1.84,2.72,3.23,3.07,6.38,2.15,22.4-6.5,41.78-1.32,57.59,15.99,2.89,3.16,5.13,6.91,7.68,10.41Zm359.35-275.61c-1.31,0-2.3-.07-3.27,.01-22.25,1.77-44.52,3.37-66.74,5.46-7.08,.66-12.91-.82-18.64-5.04-18.75-13.78-39.21-24.66-60.96-32.77-21.38-7.97-43.58-6.64-65.65-3.16-7.84,1.24-16.65,1.62-23.09,5.55-22.56,13.78-44.34,28.85-66.28,43.61-7.73,5.2-12.89,12.62-15.06,21.69-2.4,10.01-4.65,20.1-6.15,30.27-1.02,6.9-3.08,12.6-8.5,17.38-8.25,7.28-14.45,16.08-16.8,27.14-2.12,10,1.4,15.46,11.55,16.82,15.69,2.1,29.71-2,41.74-12.4,14.75-12.76,25.26-28.69,33.71-46.05,2.89-5.93,6.93-10.34,13.38-11.71,11.35-2.41,22.72-5.41,34.23-6.27,16.12-1.2,30.94,3.42,43.33,14.51,7.08,6.33,14.58,12.19,21.59,18.59,62.51,57.09,124.95,114.25,187.41,171.38,2.67,2.44,5.36,4.86,8.21,7.43,17.49-12.73,34.65-25.21,51.84-37.72-43.95-70.26-75.3-145.16-95.84-224.74Zm-580.81-52.62c-31.68,88.7-63.15,176.8-94.8,265.41,25.67,7.69,50.93,15.26,76.07,22.79,.61-.68,1.02-1,1.26-1.42,25.61-45.27,47.31-92.33,64.46-141.46,12.31-35.26,22.06-71.16,27.02-108.24,.19-1.45-.78-4.03-1.92-4.55-23.73-10.87-47.56-21.51-72.09-32.52Zm803.4,250.73c-42.12-83.23-84-166-125.88-248.76-.91,.31-1.43,.39-1.84,.65-19.51,12.45-38.98,24.97-58.55,37.33-2.77,1.75-2.04,3.59-1.43,5.93,17.61,68.25,43.93,132.94,79.42,193.84,9.37,16.07,19.81,31.52,29.97,47.58,26.46-12.35,52.17-24.35,78.31-36.55Zm-585.01,185.83c6.37-.02,12.6-2.5,16.17-7.49,9.21-12.82,18.34-25.71,27.02-38.9,4.46-6.77,4.18-14.29-.13-21.25-4.2-6.76-10.51-9.93-18.5-9.65-8.79,.31-14.14,5.62-18.57,12.5-7.9,12.29-16.05,24.41-23.83,36.77-1.5,2.38-2.48,5.55-2.46,8.34,.09,11.12,9.19,19.7,20.29,19.66Zm-48.28-102.19c-4.09,.08-9.27,2.98-13.01,8.42-6.5,9.46-13.08,18.89-19.35,28.51-6.62,10.15-1.33,23.81,10.36,27.41,7.14,2.2,16.07-.22,19.5-5.37,7.47-11.21,14.98-22.41,22.28-33.73,1.18-1.84,1.92-4.3,1.95-6.48,.18-10.56-8.43-18.86-21.74-18.75Zm177.09,92.99c-1.02,14.35-8.77,24.46-16.07,34.72,20.05,13.53,50.21,19.78,67.31,7.86-16.82-13.98-33.55-27.88-51.24-42.58Zm-34.52-3.83c-.65-5.76-4.04-10.76-9.04-12.7-5.01-1.94-11.39-.93-14.59,3.44-8.15,11.13-16.02,22.47-23.59,34.01-2.88,4.39-1.93,9.33,1.13,13.6,2.96,4.12,7.11,5.86,12.14,5.43,2.74-.23,4.25-1.12,4.4-4.56,.33-7.67,4.37-13.44,11.78-15.63,3.93-1.16,6.25-3.25,8.27-6.4,1.97-3.08,4.37-5.9,6.16-9.07,1.43-2.52,2.25-5.4,3.34-8.12Zm-189.65-95.6c-.33-7.01-2.92-11.35-8.26-13.82-5.17-2.4-11.68-1.66-15.1,2.74-5.59,7.19-10.94,14.66-15.49,22.53-3.48,6.02-.35,13.76,5.7,17.13,6.14,3.42,13.62,1.78,17.65-3.98,4.37-6.26,8.74-12.52,12.92-18.91,1.31-2,2.01-4.41,2.56-5.68Z"/><path d="M419,0c9.41,3.75,12.76,11.12,14.28,20.79,7.51,47.97,15.6,95.86,23.3,143.8,.67,4.15,.79,8.75-.28,12.75-2.01,7.51-9.4,12.02-17.23,11.65-7.81-.36-14.54-5.51-16.01-13.34-2.83-15.03-5.17-30.15-7.64-45.25-5.81-35.45-11.64-70.89-17.32-106.36-2.09-13.03,.72-17.95,12.91-24.05h8Z"/><path d="M580,0c12.21,6.35,14.59,11.58,12.62,25.34-5.66,39.54-11.11,79.11-16.63,118.68-1.38,9.89-2.64,19.8-4.14,29.67-1.53,10.04-10.37,16.65-20.04,15.2-9.77-1.46-16.06-10.16-14.66-20.9,2.26-17.33,4.79-34.62,7.22-51.93,4.51-32.14,9.28-64.25,13.4-96.44,1.23-9.6,5.13-16.23,14.22-19.62h8Z"/><path d="M740.83,95.11c-1.35,3.33-2.23,6.96-4.13,9.94-19.73,31.05-39.59,62.02-59.51,92.95-5.99,9.29-16.42,11.64-25.11,6-8.34-5.42-10.29-15.88-4.45-25.02,19.81-31,39.67-61.97,59.58-92.91,4.98-7.73,12.62-10.66,20.59-8.17,7.56,2.36,12.36,8.97,13.04,17.21Z"/><path d="M325.67,207.02c-6.14-.17-11.15-2.55-14.57-7.54-18.06-26.33-36.11-52.67-53.96-79.13-5.49-8.13-3.33-18.46,4.36-23.89,8.03-5.67,18.57-4.29,24.31,3.98,18.28,26.38,36.29,52.94,54.3,79.51,3.87,5.72,3.94,11.97,.59,17.98-3.24,5.81-8.45,8.74-15.02,9.09Z"/><path class="d" d="M305.21,604.85c13.3-.11,21.92,8.19,21.74,18.75-.04,2.19-.77,4.65-1.95,6.48-7.3,11.33-14.81,22.52-22.28,33.73-3.43,5.14-12.36,7.56-19.5,5.37-11.7-3.6-16.99-17.27-10.36-27.41,6.28-9.62,12.85-19.04,19.35-28.51,3.74-5.44,8.93-8.34,13.01-8.42Z"/><path class="d" d="M482.3,697.84c17.69,14.7,34.42,28.6,51.24,42.58-17.1,11.92-47.26,5.67-67.31-7.86,7.31-10.26,15.06-20.37,16.07-34.72Z"/></g></g></svg>