<?xml version="1.0" standalone="no"?>
<!DOCTYPE svg PUBLIC "-//W3C//DTD SVG 20010904//EN"
 "http://www.w3.org/TR/2001/REC-SVG-20010904/DTD/svg10.dtd">
<svg version="1.0" xmlns="http://www.w3.org/2000/svg"
 width="248.000000pt" height="91.000000pt" viewBox="0 0 248.000000 91.000000"
 preserveAspectRatio="xMidYMid meet">

<g transform="translate(0.000000,91.000000) scale(0.100000,-0.100000)"
fill="#000000" stroke="none">
<path d="M306 865 c-22 -19 -36 -38 -33 -42 4 -3 20 6 35 20 32 31 44 33 62
12 11 -13 8 -21 -19 -49 -41 -43 -27 -56 16 -14 l33 32 22 -22 23 -22 -155
-155 -154 -154 -23 21 -23 22 30 31 c40 41 26 55 -15 15 l-31 -30 -19 20 c-18
20 -18 21 10 50 42 44 21 50 -23 7 l-36 -37 52 -53 c28 -29 52 -57 52 -62 0
-5 -24 -33 -52 -62 l-52 -53 36 -37 c43 -42 66 -37 25 5 -31 32 -33 44 -12 62
13 11 21 8 49 -19 41 -40 56 -28 16 14 l-30 31 23 22 23 21 154 -154 155 -155
-23 -22 -22 -22 -33 32 c-43 42 -57 29 -16 -14 27 -28 30 -36 19 -49 -18 -21
-30 -19 -62 12 -15 14 -30 24 -33 22 -2 -3 13 -23 35 -44 l40 -39 55 54 55 54
55 -54 55 -54 37 36 c43 44 37 65 -7 23 -24 -23 -32 -26 -45 -15 -22 18 -19
31 13 56 15 12 24 26 19 30 -4 4 -21 -5 -37 -21 l-30 -29 -22 22 -23 22 155
155 154 154 23 -21 23 -22 -31 -32 c-17 -17 -27 -34 -21 -38 5 -3 22 8 37 24
27 28 30 29 47 13 18 -16 17 -18 -13 -49 -17 -17 -27 -34 -21 -37 5 -4 25 11
45 31 l37 38 -55 54 -55 54 55 56 55 56 -39 38 c-21 21 -41 34 -44 28 -4 -5 7
-22 23 -37 28 -27 29 -30 13 -47 -16 -18 -18 -17 -48 12 -41 40 -55 26 -15
-15 l30 -31 -23 -22 -23 -21 -154 154 -155 155 23 22 22 22 30 -29 c39 -37 52
-24 15 15 -27 28 -28 31 -12 47 16 16 19 15 47 -12 44 -42 51 -21 7 23 l-37
36 -55 -54 -55 -54 -53 52 c-29 29 -55 52 -57 52 -3 -1 -23 -16 -44 -35z m312
-258 l152 -152 -155 -155 -155 -155 -155 155 -155 155 152 152 c84 84 155 153
158 153 3 0 74 -69 158 -153z"/>
<path d="M403 629 c-17 -5 -43 -23 -57 -40 -23 -27 -26 -39 -25 -107 1 -142
46 -208 141 -206 45 0 55 5 83 36 35 38 55 105 55 184 0 63 -23 102 -73 125
-46 20 -75 22 -124 8z m110 -21 c50 -26 67 -56 67 -117 0 -70 -23 -151 -49
-176 -11 -9 -40 -20 -64 -22 -36 -4 -48 -1 -74 21 -18 15 -36 41 -42 59 -18
59 -23 147 -11 178 14 34 17 35 44 12 21 -18 21 -18 2 5 -21 25 -21 27 14 41
34 13 87 13 113 -1z"/>
<path d="M522 558 c-7 -7 -12 -27 -12 -45 0 -18 -4 -33 -10 -33 -5 0 -10 -4
-10 -10 0 -5 18 -9 41 -8 41 1 41 1 15 15 -28 15 -36 59 -14 81 7 7 10 12 7
12 -3 0 -10 -5 -17 -12z"/>
<path d="M382 483 c-19 -8 -3 -23 25 -23 21 0 24 2 13 15 -13 16 -17 17 -38 8z"/>
<path d="M435 361 c-3 -5 -1 -12 5 -16 14 -9 52 4 45 16 -8 12 -42 12 -50 0z"/>
<path d="M1107 643 c-4 -3 -7 -91 -7 -195 l0 -188 105 0 105 0 0 30 0 30 -70
0 -70 0 0 146 c0 81 -5 154 -10 165 -10 19 -40 26 -53 12z"/>
<path d="M1661 612 c-20 -38 31 -71 58 -38 9 11 10 20 1 35 -13 26 -46 27 -59
3z"/>
<path d="M1393 525 c-37 -16 -39 -22 -18 -49 12 -16 17 -17 29 -7 22 18 85 18
97 1 17 -29 9 -36 -42 -37 -71 -1 -103 -26 -107 -83 -4 -57 25 -90 80 -90 22
0 49 5 61 11 16 9 22 9 25 0 2 -6 15 -11 28 -11 24 0 24 0 24 111 0 109 0 111
-29 140 -24 23 -38 29 -73 29 -24 -1 -58 -7 -75 -15z m115 -161 c-2 -9 -15
-26 -29 -36 -34 -25 -69 -17 -69 17 0 27 11 33 63 34 31 1 38 -2 35 -15z"/>
<path d="M1660 400 l0 -140 30 0 30 0 0 140 0 140 -30 0 -30 0 0 -140z"/>
<path d="M1817 533 c-4 -3 -7 -66 -7 -140 l0 -133 30 0 30 0 0 88 c0 93 12
125 50 135 39 10 50 -17 50 -124 l0 -99 30 0 30 0 0 94 c0 105 12 130 59 124
l26 -3 3 -107 3 -108 29 0 30 0 0 115 c0 110 -1 117 -25 140 -28 29 -72 32
-116 9 -28 -14 -32 -14 -48 0 -20 18 -73 21 -101 6 -13 -7 -21 -7 -25 0 -7 11
-38 13 -48 3z"/>
<path d="M2292 522 c-30 -17 -31 -19 -17 -39 15 -21 17 -21 52 -7 43 18 83 6
83 -24 0 -15 -8 -19 -44 -19 -48 -1 -100 -24 -110 -48 -24 -62 16 -125 79
-125 20 0 45 5 55 10 14 7 25 7 38 -1 40 -25 52 -6 52 83 0 109 -13 154 -50
173 -38 20 -97 18 -138 -3z m118 -161 c0 -39 -72 -62 -93 -29 -17 26 8 48 54
48 31 0 39 -4 39 -19z"/>
<path d="M25 459 c-4 -6 -4 -13 -1 -16 3 -4 6 -1 6 6 0 8 6 11 16 7 8 -3 12
-2 9 4 -8 13 -22 13 -30 -1z"/>
<path d="M868 443 c7 -3 16 -2 19 1 4 3 -2 6 -13 5 -11 0 -14 -3 -6 -6z"/>
<path d="M444 49 c-10 -17 13 -36 27 -22 12 12 4 33 -11 33 -5 0 -12 -5 -16
-11z m26 -9 c0 -5 -4 -10 -10 -10 -5 0 -10 5 -10 10 0 6 5 10 10 10 6 0 10 -4
10 -10z"/>
</g>
</svg>
